<svg width="62" height="62" viewBox="0 0 62 62" fill="none" xmlns="http://www.w3.org/2000/svg">
<rect width="62" height="62" rx="10" fill="#C4E76A"/>
<path d="M26.75 26.75H28.875V39.5H26.75V26.75ZM33.125 26.75H35.25V39.5H33.125V26.75Z" fill="#1B312A"/>
<path d="M18.25 20.375V22.5H20.375V43.75C20.375 44.3136 20.5989 44.8541 20.9974 45.2526C21.3959 45.6511 21.9364 45.875 22.5 45.875H39.5C40.0636 45.875 40.6041 45.6511 41.0026 45.2526C41.4011 44.8541 41.625 44.3136 41.625 43.75V22.5H43.75V20.375H18.25ZM22.5 43.75V22.5H39.5V43.75H22.5ZM26.75 16.125H35.25V18.25H26.75V16.125Z" fill="#1B312A"/>
</svg>
