<svg width="146" height="36" viewBox="0 0 146 36" fill="none" xmlns="http://www.w3.org/2000/svg">
<path d="M18 0.5H128C137.665 0.500001 145.5 8.33502 145.5 18C145.5 27.665 137.665 35.5 128 35.5H18C8.33502 35.5 0.5 27.665 0.5 18C0.5 8.33502 8.33502 0.5 18 0.5Z" fill="white"/>
<path d="M18 0.5H128C137.665 0.500001 145.5 8.33502 145.5 18C145.5 27.665 137.665 35.5 128 35.5H18C8.33502 35.5 0.5 27.665 0.5 18C0.5 8.33502 8.33502 0.5 18 0.5Z" stroke="#E9EAEB"/>
<path d="M21.1667 11.3333H18.5C17.0999 11.3333 16.3998 11.3333 15.865 11.6058C15.3946 11.8455 15.0122 12.228 14.7725 12.6984C14.5 13.2331 14.5 13.9332 14.5 15.3333V21.5C14.5 22.9001 14.5 23.6002 14.7725 24.135C15.0122 24.6054 15.3946 24.9878 15.865 25.2275C16.3998 25.5 17.0999 25.5 18.5 25.5H24.6667C26.0668 25.5 26.7669 25.5 27.3016 25.2275C27.772 24.9878 28.1545 24.6054 28.3942 24.135C28.6667 23.6002 28.6667 22.9001 28.6667 21.5V18.8333M22.8333 22.1667H17.8333M24.5 18.8333H17.8333M28.7678 11.2322C29.7441 12.2085 29.7441 13.7915 28.7678 14.7678C27.7915 15.7441 26.2085 15.7441 25.2322 14.7678C24.2559 13.7915 24.2559 12.2085 25.2322 11.2322C26.2085 10.2559 27.7915 10.2559 28.7678 11.2322Z" stroke="black" stroke-width="1.66667" stroke-linecap="round" stroke-linejoin="round"/>
<path d="M46.1177 23L40.8257 15.146V23H39.3977V12.948H41.0777L46.2437 20.592V12.948H47.6717V23H46.1177ZM52.783 23.14C50.641 23.14 49.199 21.586 49.199 19.248C49.199 17.05 50.697 15.44 52.741 15.44C54.953 15.44 56.423 17.232 56.171 19.64H50.641C50.753 21.152 51.509 22.034 52.755 22.034C53.805 22.034 54.533 21.46 54.771 20.494H56.171C55.807 22.146 54.533 23.14 52.783 23.14ZM52.713 16.504C51.579 16.504 50.809 17.316 50.655 18.702H54.673C54.603 17.33 53.861 16.504 52.713 16.504ZM63.6423 23L61.9623 17.484L60.2683 23H58.8403L56.6983 15.58H58.0843L59.5823 20.984L61.2623 15.58H62.6623L64.3143 20.998L65.8123 15.58H67.2123L65.0563 23H63.6423ZM74.0817 20.788C74.0817 22.244 72.9477 23.14 70.9737 23.14C69.0137 23.14 67.8517 22.174 67.7117 20.578H69.0697C69.1257 21.502 69.8677 22.076 71.0017 22.076C71.9957 22.076 72.6537 21.726 72.6537 21.026C72.6537 20.41 72.2757 20.144 71.3517 19.962L70.1477 19.738C68.7757 19.472 68.0057 18.772 68.0057 17.652C68.0057 16.35 69.1397 15.44 70.8617 15.44C72.6397 15.44 73.8437 16.392 73.9697 17.918H72.6117C72.5277 17.022 71.8697 16.504 70.8757 16.504C69.9797 16.504 69.3777 16.882 69.3777 17.526C69.3777 18.128 69.7557 18.408 70.6517 18.576L71.9117 18.814C73.3817 19.08 74.0817 19.724 74.0817 20.788ZM81.7013 17.61L83.9413 20.13C84.1093 19.64 84.2073 19.038 84.2353 18.394H85.5373C85.5093 19.332 85.2293 20.312 84.7813 21.068L86.5033 23H84.7393L83.9413 22.104C83.1853 22.79 82.3033 23.14 81.3793 23.14C79.3633 23.14 78.0753 21.964 78.0753 20.13C78.0753 18.996 78.8033 18.086 79.9093 17.554C79.4753 16.966 79.2653 16.448 79.2653 15.776C79.2653 14.404 80.4273 13.396 81.9813 13.396C83.5493 13.396 84.6413 14.376 84.6693 15.818H83.3393C83.2693 14.992 82.6673 14.53 81.9813 14.53C81.2533 14.53 80.7073 15.062 80.7073 15.79C80.7073 16.42 81.0433 16.854 81.7013 17.61ZM79.4333 20.046C79.4333 21.04 80.0913 21.978 81.4913 21.978C82.1353 21.978 82.7513 21.726 83.2133 21.292L80.6373 18.394C79.9233 18.688 79.4333 19.276 79.4333 20.046ZM97.0372 21.656V23H90.6672V12.948H96.9392V14.292H92.2072V17.148H96.5192V18.492H92.2072V21.656H97.0372ZM104.891 15.58L102.105 23H100.565L97.779 15.58H99.305L101.363 21.376L103.449 15.58H104.891ZM108.715 23.14C106.573 23.14 105.131 21.586 105.131 19.248C105.131 17.05 106.629 15.44 108.673 15.44C110.885 15.44 112.355 17.232 112.103 19.64H106.573C106.685 21.152 107.441 22.034 108.687 22.034C109.737 22.034 110.465 21.46 110.703 20.494H112.103C111.739 22.146 110.465 23.14 108.715 23.14ZM108.645 16.504C107.511 16.504 106.741 17.316 106.587 18.702H110.605C110.535 17.33 109.793 16.504 108.645 16.504ZM115.02 18.814V23H113.606V15.58H114.922V16.812C115.426 15.986 116.266 15.44 117.288 15.44C118.814 15.44 119.822 16.42 119.822 18.198V23H118.408V18.674C118.408 17.4 117.848 16.686 116.798 16.686C115.832 16.686 115.02 17.498 115.02 18.814ZM125.858 21.628V22.874C125.424 23.07 125.046 23.14 124.598 23.14C123.226 23.14 122.274 22.398 122.274 20.76V16.784H120.636V15.58H122.274V13.382H123.688V15.58H125.928V16.784H123.688V20.438C123.688 21.46 124.178 21.824 124.934 21.824C125.27 21.824 125.564 21.768 125.858 21.628ZM133.131 20.788C133.131 22.244 131.997 23.14 130.023 23.14C128.063 23.14 126.901 22.174 126.761 20.578H128.119C128.175 21.502 128.917 22.076 130.051 22.076C131.045 22.076 131.703 21.726 131.703 21.026C131.703 20.41 131.325 20.144 130.401 19.962L129.197 19.738C127.825 19.472 127.055 18.772 127.055 17.652C127.055 16.35 128.189 15.44 129.911 15.44C131.689 15.44 132.893 16.392 133.019 17.918H131.661C131.577 17.022 130.919 16.504 129.925 16.504C129.029 16.504 128.427 16.882 128.427 17.526C128.427 18.128 128.805 18.408 129.701 18.576L130.961 18.814C132.431 19.08 133.131 19.724 133.131 20.788Z" fill="#414651"/>
</svg>
